<svg xmlns="http://www.w3.org/2000/svg" viewBox="0 0 256 256" width="256" height="256">
  <defs>
    <linearGradient id="pulse-bg" x1="0" y1="0" x2="1" y2="1">
      <stop offset="0" stop-color="#0f766e"/>
      <stop offset="1" stop-color="#1d4ed8"/>
    </linearGradient>
  </defs>
  <rect width="256" height="256" rx="54" fill="url(#pulse-bg)"/>
  <path d="M50 154c0-8 7-15 15-15h65l15-22 19 44 12-20h30c8 0 15 7 15 15s-7 15-15 15H161l-12 20-19-44-15 22H65c-8 0-15-7-15-15z" fill="#fff" opacity="0.96"/>
  <path d="M58 148h40" stroke="#0f766e" stroke-width="10" stroke-linecap="round" opacity="0.12"/>
  <path d="M98 132h33" stroke="#0f766e" stroke-width="10" stroke-linecap="round" opacity="0.12"/>
  <path d="M124 100c0-11 9-20 20-20h22c11 0 20 9 20 20v22c0 11-9 20-20 20h-22c-11 0-20-9-20-20z" fill="#fff" opacity="0.92"/>
  <circle cx="147" cy="111" r="8" fill="#1d4ed8" opacity="0.75"/>
  <circle cx="171" cy="111" r="8" fill="#0f766e" opacity="0.75"/>
  <circle cx="159" cy="123" r="8" fill="#1d4ed8" opacity="0.55"/>
</svg>